<?xml version="1.0" encoding="utf-8"?>
<!-- Generator: Adobe Illustrator 26.2.1, SVG Export Plug-In . SVG Version: 6.00 Build 0)  -->
<svg version="1.1" id="Layer_1" xmlns="http://www.w3.org/2000/svg" xmlns:xlink="http://www.w3.org/1999/xlink" x="0px" y="0px"
	 viewBox="0 0 713.5 651.1" style="enable-background:new 0 0 713.5 651.1;" xml:space="preserve">
<style type="text/css">
	.st0{fill:#FFFFFF;stroke:#231F20;stroke-width:8;stroke-miterlimit:10;}
	.st1{fill:none;stroke:#231F20;stroke-width:8;stroke-miterlimit:10;}
	.st2{fill:url(#SVGID_1_);stroke:#231F20;stroke-width:8;stroke-miterlimit:10;}
	.st3{fill:url(#SVGID_00000142170269344276003100000016117215306468263562_);stroke:#231F20;stroke-width:8;stroke-miterlimit:10;}
	.st4{fill:url(#SVGID_00000062915270526611581070000002616191428659793833_);stroke:#231F20;stroke-width:8;stroke-miterlimit:10;}
	.st5{fill:url(#SVGID_00000106145237881569140830000003717435494655618438_);stroke:#231F20;stroke-width:8;stroke-miterlimit:10;}
</style>
<g>
	<polygon class="st0" points="156.1,1305.2 156.1,1744.5 280.9,1848.7 549.2,1760.6 423,1655.1 287.4,1700.9 287.5,1409.2 	"/>
	<line class="st1" x1="239.1" y1="1813.2" x2="239.1" y2="1372.7"/>
	<line class="st1" x1="196.8" y1="1339.1" x2="196.8" y2="1779.5"/>
	<polyline class="st0" points="287.4,1699.2 287.4,1797 508.1,1723.9 	"/>
	<line class="st1" x1="287.4" y1="1749.2" x2="463.5" y2="1687.3"/>
	<line class="st1" x1="287.4" y1="1700.9" x2="423" y2="1655.1"/>
	<line class="st1" x1="287.8" y1="1796.8" x2="506" y2="1723.7"/>
	
		<linearGradient id="SVGID_1_" gradientUnits="userSpaceOnUse" x1="345.2592" y1="1374.7483" x2="167.2731" y2="1312.9091" gradientTransform="matrix(1 0 0 -1 0 3129.0691)">
		<stop  offset="0" style="stop-color:#FFFFFF"/>
		<stop  offset="1" style="stop-color:#000000"/>
	</linearGradient>
	<polygon class="st2" points="287.4,1797 287.4,1749.2 463.7,1690.1 505.4,1723.9 	"/>
	
		<linearGradient id="SVGID_00000117641034209508114790000000150634250980207007_" gradientUnits="userSpaceOnUse" x1="332.7709" y1="1418.8409" x2="188.5189" y2="1368.7273" gradientTransform="matrix(1 0 0 -1 0 3129.0691)">
		<stop  offset="0" style="stop-color:#FFFFFF"/>
		<stop  offset="1" style="stop-color:#000000"/>
	</linearGradient>
	
		<polygon style="fill:url(#SVGID_00000117641034209508114790000000150634250980207007_);stroke:#231F20;stroke-width:8;stroke-miterlimit:10;" points="
		287.4,1749.2 287.4,1700.9 422.4,1655.9 464,1689.8 	"/>
</g>
<g>
	<g>
		<path d="M637.1,1459.9H675v175.5h85.2v31.8H637.1V1459.9z"/>
		<path d="M887.1,1667.2l-2.6-16.7h-0.9c-9.1,11.8-24.7,20.1-44.1,20.1c-30.4,0-47.2-21.7-47.2-44.5c0-37.8,33.7-56.9,88.8-56.7
			v-2.5c0-9.8-3.9-26.2-30.4-26.1c-14.7,0-30,4.7-40.3,11.2l-7.5-24.6c11.3-6.9,30.7-13.3,54.3-13.3c48,0,61.7,30.3,61.7,63.1v53.9
			c0,13.6,0.7,26.8,2.3,36.1H887.1z M882.1,1593.9c-26.7-0.4-52.3,5.3-52.3,28.1c0,14.7,9.6,21.6,21.6,21.6c15.1,0,26-9.8,29.6-20.7
			c0.8-2.6,1.1-5.6,1.1-8.2V1593.9z"/>
		<path d="M1108.5,1622.4c0,17.8,0.5,32.7,1.2,44.9h-33.1l-1.8-22.6h-0.9c-6.3,10.5-21.1,26-48,26c-27.3,0-52.1-16.4-52.1-65.3
			v-87.8h37.9v81.5c0,24.9,7.9,40.8,27.9,40.8c15.2,0,25-10.6,28.9-20.2c1.3-3.3,2-7.3,2-11.7v-90.3h37.9V1622.4z"/>
		<path d="M1164.9,1562c0-17.3-0.5-31.6-1.2-44.5h33.1l1.9,22.5h0.9c6.6-11.6,22.8-25.9,47.7-25.9c26.1,0,53.2,16.8,53.2,64.2v88.9
			h-37.9v-84.5c0-21.5-7.9-37.9-28.6-37.9c-15.1,0-25.5,10.6-29.5,22.2c-1.2,3.1-1.7,7.7-1.7,12v88.1h-37.9V1562z"/>
		<path d="M1466,1662.7c-7.8,3.7-23.5,7.7-42.3,7.7c-46.9,0-77.2-30.1-77.2-76.6c0-44.8,30.6-79.7,83.3-79.7c14,0,27.9,3.1,36.6,6.8
			l-6.7,28.5c-6.1-3-15.2-5.9-28.6-5.9c-28.9,0-46,21.1-45.9,48.6c0,30.7,20.2,48.3,46,48.3c13,0,22.3-2.8,29.7-5.9L1466,1662.7z"/>
		<path d="M1509.7,1448.9h37.9v89.1h0.6c4.7-7,11-12.9,18.8-17.1c7.4-4.2,16.5-6.7,25.9-6.7c25.5,0,52.3,16.9,52.3,65v88.2h-37.9
			v-84c0-21.7-7.8-38.2-28.8-38.2c-14.8,0-25.2,10-29.3,21.2c-1.3,3.2-1.6,7.3-1.6,11.4v89.6h-37.9V1448.9z"/>
		<path d="M1700.9,1567.1c0-19.4-0.5-35.5-1.2-49.6h33.2l1.9,23h0.6c11-16.9,28.4-26.4,51.3-26.4c34.3,0,62.8,29.4,62.8,76.1
			c0,54.3-34,80.4-68.1,80.4c-18.8,0-34.4-7.9-42.1-20h-0.6v77.5h-37.8V1567.1z M1738.8,1604.5c0,3.6,0.3,7.1,1,10.3
			c3.9,15.4,17.2,26.5,33.2,26.5c24,0,38.1-20,38.1-49.3c0-26.5-12.9-48.1-37.2-48.1c-15.6,0-29.9,11.4-33.8,28
			c-0.8,3-1.4,6.4-1.4,9.5V1604.5z"/>
		<path d="M1980.5,1667.2l-2.6-16.7h-0.9c-9.1,11.8-24.7,20.1-44.1,20.1c-30.4,0-47.2-21.7-47.2-44.5c0-37.8,33.7-56.9,88.8-56.7
			v-2.5c0-9.8-3.9-26.2-30.4-26.1c-14.7,0-30,4.7-40.3,11.2l-7.5-24.6c11.3-6.9,30.7-13.3,54.3-13.3c48,0,61.7,30.3,61.7,63.1v53.9
			c0,13.6,0.7,26.8,2.3,36.1H1980.5z M1975.5,1593.9c-26.7-0.4-52.3,5.3-52.3,28.1c0,14.7,9.6,21.6,21.6,21.6
			c15.1,0,26-9.8,29.6-20.7c0.8-2.6,1.1-5.6,1.1-8.2V1593.9z"/>
		<path d="M2205.9,1448.9v176.4c0,15.3,0.5,31.8,1.2,42h-33.7l-1.7-23.7h-0.7c-8.9,16.8-27,27.1-48.6,27.1
			c-35.8,0-64.1-30.5-64.1-76.5c-0.2-50.2,31.1-80,67.1-80c20.5,0,35.3,8.5,42,19.5h0.6v-84.8H2205.9z M2168,1579.9
			c0-3-0.2-6.8-0.8-9.9c-3.4-14.6-15.5-26.6-32.6-26.6c-24.4,0-37.9,21.5-37.9,49.3c0,27.5,13.6,47.6,37.5,47.6
			c15.5,0,28.9-10.6,32.7-26.9c0.9-3.4,1.1-7.1,1.1-11V1579.9z"/>
		<path d="M2257.2,1646.3c0-14.3,9.7-24.5,23.5-24.5c13.8,0,23.2,9.9,23.3,24.5c0,13.9-9.3,24.3-23.5,24.3
			C2266.8,1670.6,2257.1,1660.3,2257.2,1646.3z"/>
		<path d="M2434.2,1667.2l-2.6-16.7h-0.9c-9.1,11.8-24.7,20.1-44.1,20.1c-30.4,0-47.2-21.7-47.2-44.5c0-37.8,33.7-56.9,88.8-56.7
			v-2.5c0-9.8-3.9-26.2-30.4-26.1c-14.7,0-30,4.7-40.3,11.2l-7.5-24.6c11.3-6.9,30.7-13.3,54.3-13.3c48,0,61.7,30.3,61.7,63.1v53.9
			c0,13.6,0.7,26.8,2.3,36.1H2434.2z M2429.2,1593.9c-26.7-0.4-52.3,5.3-52.3,28.1c0,14.7,9.6,21.6,21.6,21.6
			c15.1,0,26-9.8,29.6-20.7c0.8-2.6,1.1-5.6,1.1-8.2V1593.9z"/>
		<path d="M2561.7,1475.6c0,11.3-8.2,20.4-21.6,20.4c-12.6,0-20.8-9.1-20.7-20.4c0-11.5,8.5-20.5,21.2-20.5
			C2553.4,1455.1,2561.5,1463.9,2561.7,1475.6z M2521.6,1667.2v-149.7h37.9v149.7H2521.6z"/>
	</g>
</g>
<g>
	<polygon class="st0" points="160.2,53.8 160.2,493.1 285,597.3 553.3,509.2 427.1,403.7 291.6,449.5 291.6,157.8 	"/>
	<line class="st1" x1="243.2" y1="561.8" x2="243.2" y2="121.3"/>
	<line class="st1" x1="200.9" y1="87.7" x2="200.9" y2="528.1"/>
	<polyline class="st0" points="291.6,447.8 291.6,545.6 512.2,472.5 	"/>
	<line class="st1" x1="291.6" y1="497.8" x2="467.7" y2="435.9"/>
	<line class="st1" x1="291.6" y1="449.5" x2="427.1" y2="403.7"/>
	<line class="st1" x1="291.9" y1="545.4" x2="510.1" y2="472.3"/>
	
		<linearGradient id="SVGID_00000173158757149617371070000013575791988789216642_" gradientUnits="userSpaceOnUse" x1="349.3726" y1="2626.1394" x2="171.3864" y2="2564.3003" gradientTransform="matrix(1 0 0 -1 0 3129.0691)">
		<stop  offset="0" style="stop-color:#FFFFFF"/>
		<stop  offset="1" style="stop-color:#000000"/>
	</linearGradient>
	
		<polygon style="fill:url(#SVGID_00000173158757149617371070000013575791988789216642_);stroke:#231F20;stroke-width:8;stroke-miterlimit:10;" points="
		291.6,545.6 291.6,497.8 467.9,438.7 509.5,472.5 	"/>
	
		<linearGradient id="SVGID_00000047054805941852138000000014708797333978512003_" gradientUnits="userSpaceOnUse" x1="336.8842" y1="2670.2322" x2="192.6322" y2="2620.1184" gradientTransform="matrix(1 0 0 -1 0 3129.0691)">
		<stop  offset="0" style="stop-color:#FFFFFF"/>
		<stop  offset="1" style="stop-color:#000000"/>
	</linearGradient>
	
		<polygon style="fill:url(#SVGID_00000047054805941852138000000014708797333978512003_);stroke:#231F20;stroke-width:8;stroke-miterlimit:10;" points="
		291.6,497.8 291.6,449.5 426.5,404.5 468.1,438.4 	"/>
</g>
</svg>
